<?xml version="1.0" standalone="no"?>
<!DOCTYPE svg PUBLIC "-//W3C//DTD SVG 1.1//EN" "http://www.w3.org/Graphics/SVG/1.1/DTD/svg11.dtd">
<svg width="100%" height="100%" viewBox="0 0 250 250" version="1.1" xmlns="http://www.w3.org/2000/svg" xmlns:xlink="http://www.w3.org/1999/xlink" xml:space="preserve" style="fill-rule:evenodd;clip-rule:evenodd;stroke-linecap:round;stroke-linejoin:round;stroke-miterlimit:1.41421;">
    <g id="Layer1">
        <g>
            <path d="M76.0781,176.184L76.0781,80.1545C76.0781,78.9916 76.7383,78.4102 78.0588,78.4102C79.4488,78.4102 80.1439,78.9916 80.1439,80.1545L80.1439,176.184C80.1439,177.408 79.4488,178.02 78.0588,178.02C76.7383,178.02 76.0781,177.408 76.0781,176.184ZM78.0588,51.2354C76.2518,51.2354 75.3483,50.4398 75.3483,48.8485C75.3483,47.2571 76.2518,46.4615 78.0588,46.4615C79.8658,46.4615 80.7694,47.2571 80.7694,48.8485C80.7694,50.4398 79.8658,51.2354 78.0588,51.2354Z" style="fill:black;fill-rule:nonzero;"/>
            <path d="M175.742,176.276C175.742,177.439 175.082,178.02 173.761,178.02C172.441,178.02 171.781,177.439 171.781,176.276L171.781,112.195C171.781,106.87 170.286,101.668 167.298,96.5879C161.529,86.8564 151.556,81.9906 137.378,81.9906C123.2,81.9906 113.226,86.8564 107.458,96.5879C104.539,101.668 103.079,106.87 103.079,112.195L103.079,176.276C103.079,177.439 102.384,178.02 100.994,178.02C99.6736,178.02 99.0133,177.439 99.0133,176.276L99.0133,80.1545C99.0133,78.9916 99.6736,78.4102 100.994,78.4102C102.384,78.4102 103.079,78.9916 103.079,80.1545L103.079,96.9551C109.265,84.5918 120.698,78.4102 137.378,78.4102C153.224,78.4102 164.379,84.0104 170.842,95.2108C174.109,100.903 175.742,106.564 175.742,112.195L175.742,176.276Z" style="fill:black;fill-rule:nonzero;"/>
        </g>
        <circle cx="77.4602" cy="51.6652" r="7.2" style="fill:white;stroke-width:3px;stroke:black;"/>
        <circle cx="126" cy="125" r="120" style="fill:none;stroke-width:3px;stroke:black;"/>
    </g>
</svg>
