<?xml version="1.0" standalone="no"?>
<!DOCTYPE svg PUBLIC "-//W3C//DTD SVG 1.1//EN" "http://www.w3.org/Graphics/SVG/1.1/DTD/svg11.dtd">
<svg width="100%" height="100%" viewBox="0 0 250 250" version="1.1" xmlns="http://www.w3.org/2000/svg" xmlns:xlink="http://www.w3.org/1999/xlink" xml:space="preserve" style="fill-rule:evenodd;clip-rule:evenodd;stroke-linecap:round;stroke-linejoin:round;stroke-miterlimit:1.41421;">
    <g id="Layer1">
        <circle cx="125" cy="125" r="120" style="fill:none;stroke-width:3px;stroke:black;"/>
        <path d="M46.5867,179.142C66.5968,180.293 82.6917,175.541 95.18,165.351C79.1099,163.312 70.0653,154.542 64.7913,142.158C69.9621,142.728 74.8495,142.695 79.1422,141.398C59.6641,133.627 53.9319,121.586 52.8866,108.088C56.9182,110.181 61.3445,111.7 67.1779,111.18C56.6644,100.973 48.2053,89.5202 57.4211,67.3412C72.3779,86.9982 95.116,98.8475 126.826,101.695C124.109,62.401 158.839,49.2005 185.08,71.111C191.774,69.4855 198.997,66.7466 206.524,63.3692C204.6,69.1272 200.107,75.0688 192.986,81.1986C198.847,80.2546 204.736,78.8394 210.678,76.5415C206.354,82.4703 200.856,87.8726 194.957,93.0955C195.496,172.004 116.983,217.468 46.5867,179.142Z" style="fill:none;stroke-width:3px;stroke:black;"/>
    </g>
</svg>
